# xmcd CD database file
#
# Track frame offsets:
#	150
#	18272
#	34050
#	46199
#	61407
#	75640
#	93208
#	103921
#	115549
#	131846
#	146431
#	161486
#	177880
#	189904
#	203642
#	218039
#	229660
#
# Disc length: 3224 seconds
#
# Revision: 0
# Processed by: cddbd v1.5.1PL0 Copyright (c) Steve Scherf et al.
# Submitted via: CDex 1.50
#
DISCID=d70c9611
DTITLE=Paolo Alderighi - Handful of Keys
DYEAR=2003
DGENRE=Jazz
TTITLE0=Love is just around the corner
TTITLE1=The mooche
TTITLE2=Handful of keys
TTITLE3=Body and soul
TTITLE4=Ain't misbehavin'
TTITLE5=Do you know what it means to miss New Orleans
TTITLE6=Tea for two
TTITLE7=I can't get started
TTITLE8=You took advantage of me
TTITLE9=When a woman loves a man
TTITLE10=Satin doll
TTITLE11=Out of nowhere
TTITLE12=Stop boogie
TTITLE13=I had to be you
TTITLE14=Over the rainbow
TTITLE15=Exactly like you
TTITLE16=Oh lady be good
EXTD=YEAR: 2003
EXTT0=
EXTT1=
EXTT2=
EXTT3=
EXTT4=
EXTT5=
EXTT6=
EXTT7=
EXTT8=
EXTT9=
EXTT10=
EXTT11=
EXTT12=
EXTT13=
EXTT14=
EXTT15=
EXTT16=
PLAYORDER=
